<?xml version="1.0" encoding="utf-8"?>
<!-- Generator: Adobe Illustrator 21.1.0, SVG Export Plug-In . SVG Version: 6.00 Build 0)  -->
<svg version="1.1" xmlns="http://www.w3.org/2000/svg" xmlns:xlink="http://www.w3.org/1999/xlink" x="0px" y="0px"
	 viewBox="0 0 344 413.7" style="enable-background:new 0 0 344 413.7;" xml:space="preserve">
<style type="text/css">
	.st0{display:none;}
	.st1{display:inline;}
	.st2{fill:none;stroke:#FFFFFF;stroke-width:6;stroke-miterlimit:10;}
	.st3{fill:#4B1D12;}
	.st4{opacity:0.5;fill:#4B1D12;}
	.st5{fill:#FFFFFF;stroke:#4B1D12;stroke-width:5;stroke-miterlimit:10;}
	.st6{fill:#FFFFFF;}
	.st7{fill:none;stroke:#FFFFFF;stroke-width:3;stroke-miterlimit:10;}
	.st8{fill:#AF8A2D;}
	.st9{fill:#DFB047;}
	.st10{fill:#8A6822;}
	.st11{fill:#C4C5C5;}
	.st12{fill:#FFFFFF;stroke:#FFFFFF;stroke-width:13;stroke-miterlimit:10;}
	.st13{fill:#FFFFFF;stroke:#AF8A2D;stroke-width:13;stroke-miterlimit:10;}
	.st14{display:inline;fill:url(#SVGID_1_);}
</style>
<g id="Layer_25" class="st0">
	<rect x="11.3" y="5.7" class="st1" width="334.5" height="384"/>
</g>
<g id="Layer_24">
	<g>
		<path class="st2" d="M319.8,146.1c0-0.4-0.1-0.7-0.2-1.1c-0.1-0.7-0.3-1.4-0.5-2.1c-0.3-1-0.7-2-1.3-2.9c-0.2-0.3-0.4-0.6-0.5-0.9
			c-0.4-0.6-0.8-1.2-1.3-1.7c-0.2-0.3-0.5-0.5-0.7-0.8c0,0-0.1,0.3-0.2,0.8c-0.1,0.3-0.2,0.6-0.3,0.9c-0.1,0.4-0.3,0.8-0.4,1.2
			c-1.4,3.5-4.7,8.9-11.7,9.7c-0.4,0-0.7,0.1-1.1,0.1c-0.1,0-0.2,0-0.3,0c-0.3,0-0.7,0-1,0c-0.1,0-0.1,0-0.2,0
			c-0.4,0-0.8-0.1-1.2-0.1c-0.1,0-0.2,0-0.3,0c-0.3,0-0.7-0.1-1.1-0.2c-0.1,0-0.2,0-0.3,0c-0.4-0.1-0.9-0.2-1.3-0.3
			c-0.1,0-0.3-0.1-0.4-0.1c-0.2,0-0.3-0.1-0.5-0.2l1.4-1.4c0.1-0.1,0.2-0.3,0.3-0.4c0.2-0.3,0.3-0.6,0.4-0.9c0-0.2,0-0.3,0-0.5
			c0-0.5-0.1-1-0.4-1.4c-0.1-0.1-0.2-0.3-0.3-0.4l-4.7-4.7L287,134c-1-1-2.6-1-3.6,0l-1.4,1.4c-0.4-1.4-0.7-2.8-0.8-4
			c-0.9-8.5,4.3-12.7,8.3-14.7c2.4-1.2,4.4-1.6,4.4-1.6c-8.2-8.2-24.1-5.5-35.6,6c-11.5,11.5-14.2,27.4-6.1,35.6c0,0,0.6-3,2.6-6.1
			c1.9-3,5.2-6.1,10.5-6.6c2.1-0.2,4.5,0.1,7.2,0.9l-1.4,1.4c-0.9,0.9-1,2.5-0.1,3.4c-0.2,0.2-0.3,0.4-0.3,0.7l0,1.2l-2.2,2.2
			c-0.2-0.2-0.5-0.4-0.8-0.4c-0.6,0-1.1,0.5-1.1,1.1l0,1.2l-1.8,1.8l-1.2,0c-0.6,0-1.1,0.5-1.1,1.1c0,0.3,0.2,0.6,0.4,0.8l-2.2,2.2
			l-1.2,0c-0.6,0-1.1,0.5-1.1,1.1c0,0.3,0.2,0.6,0.4,0.8l-37.3,37.3h-8.5c0.7-0.4,1.3-1,2-1.8l0.8-0.9l0.2-0.4
			c1.7-2.6,3.5-8.3,4.6-12.7c2.4-10.1,1.1-13.2-0.8-15l-0.8-0.8l-1-0.4c-5.1-1.9-8.3-4.5-10.4-7.2c0.1,0,0.1,0.1,0.2,0.1
			c27-10.3,22.8-36.7,22.8-36.7s15.8-1.8,29.3-17s3.8-35.8,3.8-35.8s-1.8,5.5-10.5,19.8c2-15-8.8-39-13-43.8
			c3.3,26.8-9.5,51.8-9.5,51.8s-3-4.5-4.8-14c-2-30.3-11.3-36.8-15.5-40.3c3.5,27.3-1,55.8-1.8,59s-4.3,7.3-8,8.5
			c-4.5-11.5-10.5-14.8-15.5-17.3c5.8,11.6-2.4,31.8-4.8,37.4c-1.9-0.1-3.8-0.1-5.5-0.1c-0.2-0.7-0.5-1.5-0.9-2.4
			c0,0-1.8-4.7-4.3-4.7c-1.2,0-2.2,0.9-3,1.9c-8.2-10-5.4-23.7-2.8-29.4c-3.3-2.5-5.3-1-10,3.5c-4.3-4.5-4.3-17-2.8-21.6
			c-12.3,3.2-11.8,16.6-11.8,20.8c-2.5-0.5-7.3-0.8-12.3-4.5s-2-10,1.5-14c10-9.5,5.3-22.3,4.3-24.3c-2.3,5.5-10.8,10.3-13.5,12.3
			c-14.3-17.3-0.5-41.5,2.7-44.5c-10.8,0.8-15.5,3.8-22.7,17.3c-1-4-0.5-7.5,2-14.5c-17.5,8.3-18,28-16.5,35.5
			c7.5,33,28,44.8,37.2,49.8c-7,9.3,0,20.4,0,20.4c0,0,0,0,0,0c1.9,6.8,6,13.6,14.5,18.1l-4.7,0.9l7.5,6.2l-0.8,1.9
			c-4.7,11.1-7,25-8,38.7h-13.6l-27.6-27.7l-9.6-9.7c0,0,0,0,0,0c0.1-0.1,0.2-0.2,0.2-0.3c0,0,0,0,0.1-0.1c0.1-0.1,0.1-0.3,0.1-0.4
			c0-0.6-0.5-1.1-1.1-1.1l-1.2,0h0h0l-0.9-0.9l-1.3-1.3c0,0,0,0,0,0c0.1-0.1,0.2-0.2,0.2-0.3c0,0,0,0,0.1-0.1
			c0.1-0.1,0.1-0.3,0.1-0.4c0-0.1,0-0.2,0-0.3c-0.1-0.2-0.2-0.4-0.3-0.5c-0.1-0.1-0.2-0.1-0.3-0.2c-0.1-0.1-0.3-0.1-0.4-0.1l-1.2,0
			l-0.9-0.9l-0.9-0.9l0-1.2c0-0.6-0.5-1.1-1.1-1.1c-0.2,0-0.3,0-0.4,0.1c0,0,0,0-0.1,0.1c-0.1,0.1-0.2,0.1-0.3,0.2c0,0,0,0,0,0
			l-2.2-2.2l0-1.2c0-0.1,0-0.3-0.1-0.4c0-0.1-0.1-0.1-0.1-0.2c0,0,0-0.1-0.1-0.1c0,0,0.1-0.1,0.1-0.1c0.1-0.1,0.1-0.2,0.2-0.2
			c0-0.1,0.1-0.1,0.1-0.2c0-0.1,0.1-0.2,0.1-0.3c0-0.1,0-0.1,0.1-0.2c0-0.1,0.1-0.2,0.1-0.3c0-0.1,0-0.1,0-0.2c0-0.1,0-0.2,0-0.3
			c0-0.1,0-0.1,0-0.2c0-0.1,0-0.2,0-0.2c0-0.1,0-0.2-0.1-0.2c0-0.1,0-0.1-0.1-0.2c0-0.1-0.1-0.2-0.1-0.3c0-0.1-0.1-0.1-0.1-0.2
			c-0.1-0.1-0.2-0.3-0.3-0.4l-1.4-1.4c0.1,0,0.1,0,0.2-0.1c0.4-0.1,0.8-0.2,1.1-0.3c0.1,0,0.3-0.1,0.4-0.1c0.3-0.1,0.7-0.1,1-0.2
			c0.1,0,0.3,0,0.4-0.1c0.3,0,0.6-0.1,0.9-0.1c0.1,0,0.2,0,0.4,0c0.4,0,0.8-0.1,1.2-0.1c6.8-0.1,10.6,3.9,12.6,7.4
			c0.2,0.4,0.4,0.7,0.6,1c0.1,0.2,0.2,0.3,0.2,0.5c0.4,0.8,0.7,1.6,0.9,2.2c0.3,1,0.4,1.6,0.4,1.6c2-2,3.4-4.6,4.1-7.4
			c0.2-0.7,0.3-1.4,0.4-2.2c0.3-2.6,0.2-5.4-0.4-8.2c-0.2-0.8-0.4-1.6-0.6-2.4c-0.4-1.2-0.8-2.5-1.4-3.7c-0.7-1.5-1.5-3.1-2.4-4.6
			c-0.6-1-1.3-2-2-2.9c-1.1-1.4-2.3-2.9-3.7-4.2c-0.5-0.5-0.9-0.9-1.4-1.4c-1-0.9-2-1.7-3-2.5c-0.5-0.4-1-0.7-1.5-1.1
			c-0.7-0.5-1.4-0.9-2.1-1.3c-1.2-0.7-2.4-1.3-3.6-1.9c-1.6-0.7-3.3-1.3-4.9-1.7c-7.3-1.9-14.4-0.8-19,3.8c0,0,1.2,0.2,3,0.9
			c3.5,1.4,8.9,4.7,9.7,11.7c0,0.4,0.1,0.7,0.1,1.1c0,0.1,0,0.2,0,0.3c0,0.3,0,0.7,0,1c0,0.1,0,0.1,0,0.2c0,0.4-0.1,0.8-0.1,1.2
			c0,0.1,0,0.2,0,0.3c0,0.3-0.1,0.7-0.2,1.1c0,0.1,0,0.2,0,0.3c-0.1,0.4-0.2,0.9-0.3,1.3c0,0.1-0.1,0.3-0.1,0.4
			c0,0.2-0.1,0.3-0.2,0.5l-1.4-1.4c-0.1-0.1-0.3-0.2-0.4-0.3c-0.3-0.2-0.6-0.3-0.9-0.4c-0.2,0-0.3,0-0.5,0c-0.5,0-1,0.1-1.4,0.4
			c-0.1,0.1-0.3,0.2-0.4,0.3l-9.4,9.4c-1,1-1,2.6,0,3.6l1.4,1.4c-1.4,0.4-2.8,0.7-4,0.8c-8.5,0.9-12.7-4.3-14.7-8.3
			c-1.2-2.4-1.6-4.4-1.6-4.4c-8.2,8.1-5.5,24.1,6,35.6c11.5,11.5,27.4,14.2,35.6,6.1c0,0-3-0.6-6.1-2.6c-3-1.9-6.1-5.2-6.6-10.5
			c-0.2-2.1,0.1-4.5,0.9-7.2l1.4,1.4c0.9,0.9,2.5,1,3.4,0.1c0.2,0.2,0.4,0.3,0.7,0.3l1.2,0l2.2,2.2c-0.2,0.2-0.4,0.5-0.4,0.8
			c0,0.6,0.5,1.1,1.1,1.1l1.2,0l1.8,1.8l0,1.2c0,0.6,0.5,1.1,1.1,1.1c0.3,0,0.6-0.2,0.8-0.4l2.2,2.2l0,1.2c0,0.6,0.5,1.1,1.1,1.1
			c0.3,0,0.6-0.2,0.8-0.4l29.3,29.4H91l16.3,28.2H66.6l19,25.3l-5.1,6.7l-2.1-14.7l-1.5,0.2l-0.7-4.6l-8,1l-16.6,21.8l-2.1-14.7
			l-1.5,0.2l-0.7-4.6L32,247.2l4.6,6.8l2.6-0.3l1.2,1.3l2.9,20.2l1.5-0.2l0.7,4.6l8-1l16.6-21.8l2.1,14.7l1.5-0.2l0.7,4.6l8-1
			l9.4-12.4l12.5,16.6l-4,0.5l4.6,6.8l1.5-0.2l0.7,4.2l-1,3.2l-5.2,15.4l3.9-0.5l-1.7,4.9l24.7-3.1l44.1,58.7l53.3-70.9l1.9-0.2
			l1.4-4.2l15-19.9l2.2-0.3l1.6-4.8l4.1-5.5l-6.8,20.4l-2.6,7.7l3.9-0.5l-1.7,4.9l29-3.6l2.6-7.7l-3.9,0.5l1.7-4.9l-17.9,2.2
			l6.1-18.1l-3.8,0.5l1.7-4.9l-6,0.8l23.8-31.6h-40.7l16.3-28.2h-15.3l29.3-29.3c0,0,0,0,0,0c0.1,0.1,0.2,0.2,0.3,0.2
			c0,0,0,0,0.1,0.1c0.1,0.1,0.3,0.1,0.4,0.1h0c0.1,0,0.3,0,0.4-0.1c0.4-0.2,0.7-0.5,0.7-1l0-1.2l0.4-0.4l1.8-1.8c0,0,0,0,0,0
			c0.1,0.1,0.2,0.2,0.3,0.2c0,0,0,0,0.1,0.1c0.1,0.1,0.3,0.1,0.4,0.1h0c0.3,0,0.6-0.1,0.8-0.3c0.2-0.2,0.3-0.5,0.3-0.8l0-1.2
			l1.8-1.8l1.2,0c0.6,0,1.1-0.5,1.1-1.1c0-0.2,0-0.3-0.1-0.4c0,0,0,0-0.1-0.1c-0.1-0.1-0.1-0.2-0.2-0.3c0,0,0,0,0,0l2.2-2.2l1.2,0h0
			h0c0.1,0,0.3,0,0.4-0.1c0.1,0,0.1-0.1,0.2-0.1c0,0,0.1,0,0.1-0.1c0,0,0.1,0.1,0.1,0.1c0.1,0.1,0.2,0.1,0.2,0.2
			c0.1,0,0.1,0.1,0.2,0.1c0.1,0,0.2,0.1,0.3,0.1c0.1,0,0.1,0,0.2,0.1c0.1,0,0.2,0.1,0.3,0.1c0.1,0,0.1,0,0.2,0c0.1,0,0.2,0,0.3,0
			c0.1,0,0.1,0,0.2,0c0.1,0,0.2,0,0.2,0c0.1,0,0.2,0,0.2-0.1c0.1,0,0.1,0,0.2-0.1c0.1,0,0.2-0.1,0.3-0.1c0.1,0,0.1-0.1,0.2-0.1
			c0.1-0.1,0.3-0.2,0.4-0.3l1.4-1.4c0,0.1,0,0.1,0.1,0.2c0.1,0.4,0.2,0.8,0.3,1.2c0,0.1,0.1,0.3,0.1,0.4c0.1,0.3,0.1,0.7,0.2,1
			c0,0.1,0,0.3,0.1,0.4c0,0.3,0.1,0.6,0.1,0.9c0,0.1,0,0.2,0,0.4c0,0.4,0.1,0.8,0.1,1.2c0,3-0.7,5.4-1.8,7.3
			c-0.5,0.8-1.1,1.6-1.7,2.2c-1.2,1.3-2.6,2.3-3.9,3.1c-2.8,1.6-5.3,2.1-5.3,2.1c2,2,4.6,3.4,7.4,4.1c0.7,0.2,1.4,0.3,2.2,0.4
			c2.6,0.3,5.4,0.2,8.2-0.4c0.8-0.2,1.6-0.4,2.4-0.6c1.2-0.4,2.5-0.8,3.7-1.4c1.5-0.7,3.1-1.5,4.6-2.4c1-0.6,2-1.3,2.9-2
			c1.4-1.1,2.9-2.3,4.2-3.7c1.9-1.9,3.5-3.9,4.9-6c0.5-0.7,0.9-1.4,1.3-2.1c0.7-1.2,1.3-2.4,1.9-3.6c0.9-2,1.6-4.1,2-6.1
			s0.6-4,0.6-5.9C320,147.6,319.9,146.8,319.8,146.1z"/>
		<polygon class="st2" points="315.7,252.7 286.7,256.3 282.8,267.8 280.3,275.5 276.4,287 280.3,286.5 278.6,291.5 307.6,287.8 
			310.2,280.2 306.3,280.6 307.6,276.8 311.5,276.3 314,268.6 310.2,269.1 311.4,265.3 315.3,264.8 317.9,257.1 314,257.6 		"/>
	</g>
</g>
<g id="Lay1er_6">
	<g id="Layer_4">
	</g>
	<g id="Layer_1">
	</g>
	<g id="Layer_3">
	</g>
</g>
<g id="Layer_22">
	<g>
		
			<rect x="140.2" y="204.5" transform="matrix(0.7075 -0.7067 0.7067 0.7075 -84.1533 217.0063)" class="st3" width="159.8" height="11.3"/>
		
			<rect x="140.2" y="207.4" transform="matrix(0.7075 -0.7067 0.7067 0.7075 -84.1534 217.0075)" class="st3" width="159.8" height="5.5"/>
		<g>
			<g>
				<path class="st3" d="M271.8,167.6c-0.6,0-1.1-0.5-1.1-1.1l0-16.1c0-0.6,0.5-1.1,1.1-1.1l0,0c0.6,0,1.1,0.5,1.1,1.1l0,16.1
					C272.9,167.2,272.4,167.7,271.8,167.6L271.8,167.6z"/>
				<path class="st3" d="M281,158.5c0-0.6-0.5-1.1-1.1-1.1l-16.1,0c-0.6,0-1.1,0.5-1.1,1.1l0,0c0,0.6,0.5,1.1,1.1,1.1l16.1,0
					C280.5,159.6,281,159.1,281,158.5L281,158.5z"/>
			</g>
			<g>
				<path class="st3" d="M267.8,171.7c-0.6,0-1.1-0.5-1.1-1.1l0-16.1c0-0.6,0.5-1.1,1.1-1.1l0,0c0.6,0,1.1,0.5,1.1,1.1l0,16.1
					C268.9,171.2,268.4,171.7,267.8,171.7L267.8,171.7z"/>
				<path class="st3" d="M276.9,162.6c0-0.6-0.5-1.1-1.1-1.1l-16.1,0c-0.6,0-1.1,0.5-1.1,1.1l0,0c0,0.6,0.5,1.1,1.1,1.1l16.1,0
					C276.4,163.6,276.9,163.2,276.9,162.6L276.9,162.6z"/>
			</g>
		</g>
		<g>
			<path class="st3" d="M286.9,156.3l9.4-9.4c1-1,1-2.6,0-3.6l-9.4-9.4c-1-1-2.6-1-3.6,0l-9.4,9.4c-1,1-1,2.6,0,3.6l9.4,9.4
				C284.4,157.3,285.9,157.3,286.9,156.3z"/>
			<path class="st3" d="M284.1,159.2l9.4-9.4c1-1,1-2.6,0-3.6l-9.4-9.4c-1-1-2.6-1-3.6,0l-9.4,9.4c-1,1-1,2.6,0,3.6l9.4,9.4
				C281.5,160.2,283.1,160.2,284.1,159.2z"/>
			<g>
				<path class="st3" d="M301.6,151.9c0.4-0.9,0.7-1.8,1-2.7c-3.2,0.4-7.2-0.2-12.2-2.5l-6.7,6.6c1.8,3.9,2.5,7.2,2.6,10.1
					c3-2.5,6.3-4.6,9.9-6.2C298.5,156.4,300.4,154.2,301.6,151.9z"/>
				<path class="st3" d="M293.2,177.7c7.4-3,13.6-7.1,18-14.1c3.2-4.8,4-10,5.3-15.4c0.6-3-1.4-5.6-2.2-8.4c0-0.1,0-0.2-0.1-0.3
					c-1.4,3.5-4.7,8.9-11.7,9.7c-0.3,0.9-0.6,1.8-1,2.7c-1.2,2.2-3.1,4.4-5.3,5.3c-3.6,1.6-6.9,3.7-9.9,6.2
					c0.1,6.8-3.9,10.6-7.4,12.6c1,0.8,2,1.5,3.2,1.8C285.7,178.8,289.7,179.2,293.2,177.7z"/>
				<path class="st3" d="M315.2,136.6c0,0-0.2,1.2-0.9,3c0,0.1,0,0.2,0.1,0.3c0.8,2.9,2.8,5.4,2.2,8.4c-1.3,5.4-2.1,10.6-5.3,15.4
					c-4.4,7-10.6,11.1-18,14.1c-3.5,1.4-7.5,1-11,0.1c-1.2-0.3-2.2-1-3.2-1.8c-2.8,1.6-5.3,2.1-5.3,2.1c8.2,8.2,24.1,5.5,35.6-6
					C320.7,160.6,323.4,144.7,315.2,136.6z"/>
				<path class="st3" d="M281.1,131.5c-0.9-8.5,4.3-12.7,8.3-14.7c-0.4-0.2-0.9-0.4-1.3-0.6c-8.2-2.5-16.3,0.8-23.1,5.7
					c-8.7,6.2-16.2,17.9-10.3,28.7c1.9-3,5.2-6.1,10.5-6.6c2-4,5.1-7.3,9.4-9.2C277,133.8,279.1,132.7,281.1,131.5z"/>
				<path class="st3" d="M265.1,121.9c6.7-4.9,14.9-8.2,23.1-5.7c0.4,0.1,0.9,0.3,1.3,0.6c2.4-1.2,4.4-1.6,4.4-1.6
					c-8.1-8.2-24.1-5.5-35.6,6c-11.5,11.5-14.2,27.4-6.1,35.6c0,0,0.6-3,2.6-6.1C248.9,139.8,256.3,128,265.1,121.9z"/>
				<path class="st3" d="M276.9,146.5l6.7-6.6c-1.4-3.2-2.2-6-2.5-8.4c-2,1.3-4.2,2.4-6.5,3.4c-4.2,1.8-7.4,5.1-9.4,9.2
					C268.4,143.7,272.3,144.4,276.9,146.5z"/>
			</g>
			<path class="st3" d="M285.5,157.8l9.4-9.4c1-1,1-2.6,0-3.6l-9.4-9.4c-1-1-2.6-1-3.6,0l-9.4,9.4c-1,1-1,2.6,0,3.6l9.4,9.4
				C282.9,158.8,284.5,158.8,285.5,157.8z"/>
		</g>
		<path class="st3" d="M167.3,272.4c-0.6,0.6-1.4,0.6-1.9,0.2l-7.7-7.7c-0.5-0.5-0.4-1.3,0.2-1.9l0,0c0.6-0.6,1.4-0.6,1.9-0.2
			l7.7,7.7C167.9,271,167.8,271.8,167.3,272.4L167.3,272.4z"/>
		<path class="st3" d="M165.3,274.4c-0.6,0.6-1.4,0.6-1.9,0.2l-7.7-7.7c-0.5-0.5-0.4-1.3,0.2-1.9l0,0c0.6-0.6,1.4-0.6,1.9-0.2
			l7.7,7.7C165.9,272.9,165.9,273.8,165.3,274.4L165.3,274.4z"/>
		<path class="st3" d="M163.3,276.3c-0.6,0.6-1.4,0.6-1.9,0.2l-7.7-7.7c-0.5-0.5-0.4-1.3,0.2-1.9l0,0c0.6-0.6,1.4-0.6,1.9-0.2
			l7.7,7.7C164,274.9,163.9,275.8,163.3,276.3L163.3,276.3z"/>
		<path class="st3" d="M161.4,278.3c-0.6,0.6-1.4,0.6-1.9,0.2l-7.7-7.7c-0.5-0.5-0.4-1.3,0.2-1.9l0,0c0.6-0.6,1.4-0.6,1.9-0.2
			l7.7,7.7C162,276.9,161.9,277.7,161.4,278.3L161.4,278.3z"/>
		<path class="st3" d="M159.4,280.2c-0.6,0.6-1.4,0.6-1.9,0.2l-7.7-7.7c-0.5-0.5-0.4-1.3,0.2-1.9l0,0c0.6-0.6,1.4-0.6,1.9-0.2
			l7.7,7.7C160.1,278.8,160,279.7,159.4,280.2L159.4,280.2z"/>
		<path class="st3" d="M157.5,282.2c-0.6,0.6-1.4,0.6-1.9,0.2l-7.7-7.7c-0.5-0.5-0.4-1.3,0.2-1.9l0,0c0.6-0.6,1.4-0.6,1.9-0.2
			l7.7,7.7C158.1,280.8,158,281.6,157.5,282.2L157.5,282.2z"/>
		<path class="st3" d="M155.5,284.2c-0.6,0.6-1.4,0.6-1.9,0.2l-7.7-7.7c-0.5-0.5-0.4-1.3,0.2-1.9l0,0c0.6-0.6,1.4-0.6,1.9-0.2
			l7.7,7.7C156.1,282.7,156.1,283.6,155.5,284.2L155.5,284.2z"/>
		<path class="st3" d="M153.9,288.4c-1.3,1.3-3.3,1.3-4.6,0l-7.6-7.6c-1.3-1.3-1.3-3.3,0-4.6l0,0c1.3-1.3,3.3-1.3,4.6,0l7.6,7.6
			C155.2,285.1,155.2,287.1,153.9,288.4L153.9,288.4z"/>
		<path class="st4" d="M315.2,136.6c0,0-0.2,1.2-0.9,3c-1.4,3.5-4.7,8.9-11.7,9.7c-2.2,0.3-4.8,0.1-7.8-0.8l1.4-1.4c1-1,1-2.6,0-3.6
			l-4.7-4.7l-146,145.9l3.8,3.8c1.3,1.3,3.3,1.3,4.6,0c1-1,1.2-2.5,0.6-3.8c0.3,0,0.7-0.2,1-0.5c0.5-0.5,0.6-1.1,0.4-1.6
			c0.5,0.2,1.1,0.1,1.6-0.4c0.5-0.5,0.6-1.1,0.4-1.6c0.5,0.2,1.1,0.1,1.6-0.4c0.5-0.5,0.6-1.1,0.4-1.6c0.5,0.2,1.1,0.1,1.6-0.4
			c0.5-0.5,0.6-1.1,0.4-1.6c0.5,0.2,1.1,0.1,1.6-0.4c0.5-0.5,0.6-1.1,0.4-1.6c0.5,0.2,1.1,0.1,1.6-0.4c0.5-0.5,0.6-1.1,0.4-1.6
			c0.5,0.2,1.1,0.1,1.6-0.4c0.6-0.6,0.6-1.4,0.2-1.9l0.1,0.1l99.4-99.3c0.2,0.2,0.5,0.4,0.8,0.4c0.6,0,1.1-0.5,1.1-1.1l0-1.2
			l2.2-2.2c0.2,0.2,0.5,0.4,0.8,0.4c0.6,0,1.1-0.5,1.1-1.1l0-1.2l1.8-1.8l1.2,0c0.6,0,1.1-0.5,1.1-1.1c0-0.3-0.1-0.6-0.4-0.8
			l2.2-2.2l1.2,0c0.3,0,0.5-0.1,0.7-0.3c1,0.9,2.5,0.8,3.4-0.1l1.4-1.4c0.6,2.1,0.9,4,0.9,5.6c0.1,6.8-3.9,10.6-7.4,12.6
			c-2.8,1.6-5.3,2.1-5.3,2.1c8.2,8.2,24.1,5.5,35.6-6C320.7,160.6,323.4,144.7,315.2,136.6z"/>
	</g>
	<g>
		
			<rect x="113.1" y="130.3" transform="matrix(0.7075 -0.7067 0.7067 0.7075 -113.805 145.3504)" class="st3" width="11.3" height="159.8"/>
		
			<rect x="116" y="130.3" transform="matrix(0.7075 -0.7067 0.7067 0.7075 -113.8049 145.3512)" class="st3" width="5.5" height="159.8"/>
		<g>
			<g>
				<path class="st3" d="M76.2,158.4c0,0.6-0.5,1.1-1.1,1.1l-16.1,0c-0.6,0-1.1-0.5-1.1-1.1l0,0c0-0.6,0.5-1.1,1.1-1.1l16.1,0
					C75.7,157.4,76.2,157.8,76.2,158.4L76.2,158.4z"/>
				<path class="st3" d="M67,149.3c-0.6,0-1.1,0.5-1.1,1.1l0,16.1c0,0.6,0.5,1.1,1.1,1.1l0,0c0.6,0,1.1-0.5,1.1-1.1l0-16.1
					C68.1,149.8,67.6,149.3,67,149.3L67,149.3z"/>
			</g>
			<g>
				<path class="st3" d="M80.2,162.5c0,0.6-0.5,1.1-1.1,1.1l-16.1,0c-0.6,0-1.1-0.5-1.1-1.1l0,0c0-0.6,0.5-1.1,1.1-1.1l16.1,0
					C79.7,161.4,80.2,161.9,80.2,162.5L80.2,162.5z"/>
				<path class="st3" d="M71.1,153.3c-0.6,0-1.1,0.5-1.1,1.1l0,16.1c0,0.6,0.5,1.1,1.1,1.1l0,0c0.6,0,1.1-0.5,1.1-1.1l0-16.1
					C72.2,153.8,71.7,153.3,71.1,153.3L71.1,153.3z"/>
			</g>
		</g>
		<g>
			<path class="st3" d="M64.9,143.3l-9.4-9.4c-1-1-2.6-1-3.6,0l-9.4,9.4c-1,1-1,2.6,0,3.6l9.4,9.4c1,1,2.6,1,3.6,0l9.4-9.4
				C65.9,145.9,65.9,144.3,64.9,143.3z"/>
			<path class="st3" d="M67.8,146.2l-9.4-9.4c-1-1-2.6-1-3.6,0l-9.4,9.4c-1,1-1,2.6,0,3.6l9.4,9.4c1,1,2.6,1,3.6,0l9.4-9.4
				C68.7,148.8,68.7,147.2,67.8,146.2z"/>
			<g>
				<path class="st3" d="M60.5,128.7c-0.9-0.4-1.8-0.7-2.7-1c0.4,3.2-0.2,7.2-2.5,12.2l6.6,6.7c3.9-1.8,7.2-2.5,10.1-2.6
					c-2.5-3-4.6-6.3-6.2-9.9C64.9,131.8,62.7,129.8,60.5,128.7z"/>
				<path class="st3" d="M86.3,137.1c-3-7.4-7.1-13.6-14.1-18c-4.8-3.2-10-4-15.4-5.3c-3-0.6-5.6,1.4-8.4,2.2c-0.1,0-0.2,0-0.3,0.1
					c3.5,1.4,8.9,4.7,9.7,11.7c0.9,0.3,1.8,0.6,2.7,1c2.2,1.2,4.4,3.1,5.3,5.3c1.6,3.6,3.7,6.9,6.2,9.9c6.8-0.1,10.6,3.9,12.6,7.4
					c0.8-1,1.5-2,1.8-3.2C87.3,144.6,87.7,140.6,86.3,137.1z"/>
				<path class="st3" d="M45.1,115.1c0,0,1.2,0.2,3,0.9c0.1,0,0.2,0,0.3-0.1c2.9-0.8,5.4-2.8,8.4-2.2c5.4,1.3,10.6,2.1,15.4,5.3
					c7,4.4,11.1,10.6,14.1,18c1.4,3.5,1,7.5,0.1,11c-0.3,1.2-1,2.2-1.8,3.2c1.6,2.8,2.1,5.3,2.1,5.3c8.2-8.2,5.5-24.1-6-35.6
					C69.2,109.6,53.3,106.9,45.1,115.1z"/>
				<path class="st3" d="M40,149.1c-8.5,0.9-12.7-4.3-14.7-8.3c-0.2,0.4-0.4,0.9-0.6,1.3c-2.5,8.2,0.8,16.3,5.7,23.1
					c6.2,8.7,17.9,16.2,28.7,10.3c-3-1.9-6.1-5.2-6.6-10.5c-4-2-7.3-5.1-9.2-9.4C42.4,153.3,41.3,151.2,40,149.1z"/>
				<path class="st3" d="M30.4,165.2c-4.9-6.7-8.2-14.9-5.7-23.1c0.1-0.4,0.3-0.9,0.6-1.3c-1.2-2.4-1.6-4.4-1.6-4.4
					c-8.2,8.1-5.5,24.1,6,35.6c11.5,11.5,27.4,14.2,35.6,6.1c0,0-3-0.6-6.1-2.6C48.3,181.4,36.5,173.9,30.4,165.2z"/>
				<path class="st3" d="M55.1,153.3l-6.6-6.7c-3.2,1.4-6,2.2-8.4,2.5c1.3,2,2.4,4.2,3.4,6.5c1.8,4.2,5.1,7.4,9.2,9.4
					C52.3,161.8,52.9,158,55.1,153.3z"/>
			</g>
			<path class="st3" d="M66.3,144.8l-9.4-9.4c-1-1-2.6-1-3.6,0l-9.4,9.4c-1,1-1,2.6,0,3.6l9.4,9.4c1,1,2.6,1,3.6,0l9.4-9.4
				C67.3,147.4,67.3,145.8,66.3,144.8z"/>
		</g>
		<path class="st3" d="M180.9,263c0.6,0.6,0.6,1.4,0.2,1.9l-7.7,7.7c-0.5,0.5-1.3,0.4-1.9-0.2l0,0c-0.6-0.6-0.6-1.4-0.2-1.9l7.7-7.7
			C179.5,262.4,180.4,262.4,180.9,263L180.9,263z"/>
		<path class="st3" d="M182.9,265c0.6,0.6,0.6,1.4,0.2,1.9l-7.7,7.7c-0.5,0.5-1.3,0.4-1.9-0.2l0,0c-0.6-0.6-0.6-1.4-0.2-1.9l7.7-7.7
			C181.5,264.3,182.3,264.4,182.9,265L182.9,265z"/>
		<path class="st3" d="M184.9,266.9c0.6,0.6,0.6,1.4,0.2,1.9l-7.7,7.7c-0.5,0.5-1.3,0.4-1.9-0.2l0,0c-0.6-0.6-0.6-1.4-0.2-1.9
			l7.7-7.7C183.4,266.3,184.3,266.4,184.9,266.9L184.9,266.9z"/>
		<path class="st3" d="M186.8,268.9c0.6,0.6,0.6,1.4,0.2,1.9l-7.7,7.7c-0.5,0.5-1.3,0.4-1.9-0.2l0,0c-0.6-0.6-0.6-1.4-0.2-1.9
			l7.7-7.7C185.4,268.2,186.2,268.3,186.8,268.9L186.8,268.9z"/>
		<path class="st3" d="M188.8,270.9c0.6,0.6,0.6,1.4,0.2,1.9l-7.7,7.7c-0.5,0.5-1.3,0.4-1.9-0.2l0,0c-0.6-0.6-0.6-1.4-0.2-1.9
			l7.7-7.7C187.4,270.2,188.2,270.3,188.8,270.9L188.8,270.9z"/>
		<path class="st3" d="M190.7,272.8c0.6,0.6,0.6,1.4,0.2,1.9l-7.7,7.7c-0.5,0.5-1.3,0.4-1.9-0.2l0,0c-0.6-0.6-0.6-1.4-0.2-1.9
			l7.7-7.7C189.3,272.2,190.2,272.2,190.7,272.8L190.7,272.8z"/>
		<path class="st3" d="M192.7,274.8c0.6,0.6,0.6,1.4,0.2,1.9l-7.7,7.7c-0.5,0.5-1.3,0.4-1.9-0.2l0,0c-0.6-0.6-0.6-1.4-0.2-1.9
			l7.7-7.7C191.3,274.1,192.1,274.2,192.7,274.8L192.7,274.8z"/>
		<path class="st3" d="M196.9,276.4c1.3,1.3,1.3,3.3,0,4.6l-7.6,7.6c-1.3,1.3-3.3,1.3-4.6,0l0,0c-1.3-1.3-1.3-3.3,0-4.6l7.6-7.6
			C193.6,275.1,195.7,275.1,196.9,276.4L196.9,276.4z"/>
		<path class="st4" d="M45.1,115.1c0,0,1.2,0.2,3,0.9c3.5,1.4,8.9,4.7,9.7,11.7c0.3,2.2,0.1,4.8-0.8,7.8l-1.4-1.4c-1-1-2.6-1-3.6,0
			l-4.7,4.7l145.9,146l3.8-3.8c1.3-1.3,1.3-3.3,0-4.6c-1-1-2.5-1.2-3.8-0.6c0-0.3-0.2-0.7-0.5-1c-0.5-0.5-1.1-0.6-1.6-0.4
			c0.2-0.5,0.1-1.1-0.4-1.6c-0.5-0.5-1.1-0.6-1.6-0.4c0.2-0.5,0.1-1.1-0.4-1.6c-0.5-0.5-1.1-0.6-1.6-0.4c0.2-0.5,0.1-1.1-0.4-1.6
			c-0.5-0.5-1.1-0.6-1.6-0.4c0.2-0.5,0.1-1.1-0.4-1.6c-0.5-0.5-1.1-0.6-1.6-0.4c0.2-0.5,0.1-1.1-0.4-1.6c-0.5-0.5-1.1-0.6-1.6-0.4
			c0.2-0.5,0.1-1.1-0.4-1.6c-0.6-0.6-1.4-0.6-1.9-0.2l0.1-0.1l-99.3-99.4c0.2-0.2,0.4-0.5,0.4-0.8c0-0.6-0.5-1.1-1.1-1.1l-1.2,0
			l-2.2-2.2c0.2-0.2,0.4-0.5,0.4-0.8c0-0.6-0.5-1.1-1.1-1.1l-1.2,0l-1.8-1.8l0-1.2c0-0.6-0.5-1.1-1.1-1.1c-0.3,0-0.6,0.1-0.8,0.4
			l-2.2-2.2l0-1.2c0-0.3-0.1-0.5-0.3-0.7c0.9-1,0.8-2.5-0.1-3.4l-1.4-1.4c2.1-0.6,4-0.9,5.6-0.9c6.8-0.1,10.6,3.9,12.6,7.4
			c1.6,2.8,2.1,5.3,2.1,5.3c8.2-8.2,5.5-24.1-6-35.6C69.2,109.6,53.3,106.9,45.1,115.1z"/>
	</g>
</g>
<g id="Layer_20_copy">
	<polygon class="st3" points="171.9,369.1 277.3,228.8 66.5,228.8 	"/>
</g>
<g id="Layer_20">
	<polygon class="st5" points="171.9,340.9 252.9,200.6 90.9,200.6 	"/>
</g>
<g id="Layer_21">
	<circle class="st6" cx="177.1" cy="74.5" r="10.9"/>
	<ellipse transform="matrix(0.7071 -0.7071 0.7071 0.7071 20.3644 138.2473)" class="st7" cx="177.1" cy="44.5" rx="7" ry="7"/>
</g>
<g id="Layer_6">
	<path class="st3" d="M171.3,311.1l-6.9-3.4c-1.3-0.7-33.1-16.4-43.9-29.6c-13.2-16.1-8.3-31.8,3.8-51.8l5.7-9.4
		c0.2-18,2-39.4,8.7-54.9l0.8-1.9l-7.5-6.2l4.7-0.9c-11.5-6.1-15-16.3-15.7-25l0-0.4c0-1.6,0-6.5,3.9-9.1c2.7-1.8,6.2-1.9,10.4-0.3
		c5.2,2,12.5,7.3,16.9,15l2.9,0.5c4,0.7,9.3-1.9,10.1-3.2c0,0,2.1-4.1,4.5-4.1s4.3,4.7,4.3,4.7c0.4,0.8,0.7,1.6,0.9,2.4
		c8.9-0.4,20.9,1.6,27.8,7.5c4.5,3.9,6.3,9.2,4.9,14.8l-1,4.3c2,3.1,5.5,6.6,11.6,8.9l1,0.4l0.8,0.8c1.8,1.8,3.2,4.9,0.8,15
		c-1.1,4.5-2.9,10.1-4.6,12.7L216,198l-0.8,0.9c-4.2,4.5-7.3,3-15.7,2.3c0.2,1,1,5.4,1.2,6.4c0.6,3.4,1.2,6.4,3.3,8.7
		c0.9,1,2.9,2.7,5.1,4.5c9.1,7.6,22.9,19.2,16.5,29.7c-4.7,7.7-17.3,18.3-27.4,26.8c-2.7,2.2-5.2,4.4-7.1,6.1
		c-1.2,1.1-2.4,2.1-3.7,3.3c-5,4.4-15.5,13.5-15.8,16.7L171.3,311.1z M126.8,242.6c-6.8,14.5-4.8,21.7,1.4,29.2
		c6.7,8.1,25.1,18.8,35.8,24.5c3.1-4.9,9.1-10.3,16.9-17.1c1.3-1.1,2.5-2.2,3.7-3.2c2-1.8,4.6-3.9,7.3-6.2
		c9-7.6,21.4-18.1,25.3-24.4c0.6-0.9-0.5-3.2-2.8-6c-3.1-3.8-7.8-7.7-11.6-10.9c-2.6-2.2-4.7-4-6.1-5.5c-4-4.4-5-9.5-5.8-13.6
		c-0.3-1.8-0.6-3.4-1.1-4.6c-1.4-3.3-1.3-6.1,0.4-8.2c2.6-3.3,6.7-2.7,9.7-2.3l0.3,0c5.1,0.5,5.1,0.5,7.8-2.4l0.1-0.1
		c1.5-2.7,3.8-10.9,4.1-14.9c-17.3-7.8-18.1-23.2-18.1-23.9l-0.2-6.3l0.2,0c-7-3.9-20-4.4-24.1-2.8l-1.6-3.6c0,0,0,0,0,0l-1,2.1
		c-1.6,3.4-4.4,5.2-7.5,5.8l1.2,0.1l-2.6,6.1c-0.5,1.1-1.2,2-2,2.8l1.9,0.6l-1.2,4.6c-1.4,5.4-6.1,6.4-10.5,6.4
		c-9.5,26.4-6.2,69.7-5.4,78.4l0.8,8.6l-7.9-3.6C131,250.9,128.5,247,126.8,242.6z M212.2,175.5L212.2,175.5L212.2,175.5z
		 M131.1,127.2c0.8,9.5,5.7,15.6,15,18.7c-0.3-3.8-1.8-7.2-3.8-10l-8.7-6.2l3.2,0.6c-1.9-1.4-3.7-2.4-5-3c-0.3-0.1-0.5-0.2-0.7-0.2
		C131.1,127.1,131.1,127.2,131.1,127.2z M149.4,142.7L149.4,142.7L149.4,142.7z M149.4,142.7C149.4,142.7,149.4,142.7,149.4,142.7
		L149.4,142.7z"/>
	<path class="st8" d="M126.5,126c0,0,6.7-3.3,14.3,4.7c3.2,3.2,7.7,7.2,10.2,16.8c1.3-4.2-0.7-11.5-2-14.7s-9.4-10.2-13.3-11.8
		S124.8,119,126.5,126z"/>
	<path class="st8" d="M166.6,303.2c0,0-32-15.8-42.2-28.3s-9-24.2,4.2-46c1,8.8,4.5,17.5,7.8,19c-1.5-16.3-3.8-58.8,7-84
		c4.5,0.3,8.3,0.5,9-2.5c-6.8-2-4.5-1-9-4.8c7.5-1.5,9.8-2.3,10.5-4c-6.3-0.8-26-3.5-27.7-25.3c0-3.8,1-7.3,7.5-4.8
		c6.5,2.5,17.3,11.5,17.5,24c3-0.8,3.3-3.5,3.3-3.5s6.3,2,8.5-2.8c-7.3-0.5-6.8-0.8-8.5-2c5.8,1,13.3-2.3,15.3-5.5
		c1,2.3,1.8,5-1.5,6.5c8-3.3,38.5-0.5,34.8,15c-2.5-1.3-3.8-1.5-3.8-1.5s0.5,14.3,17.5,20.5c2.3,2.3-2.3,18-4.5,21.5
		c-3.8,4-4.5,5.3-12.5,4.5c-3.5-0.5-7.3-1.3-5.3,3.5s1.3,11.5,6,16.8s26.5,19.3,21,28.3c-5.5,9-24.8,24-33.5,31.7
		S166.8,297.2,166.6,303.2z"/>
	<path class="st9" d="M200.3,219.7c-4.8-5.3-4-12-6-16.8s1.8-4,5.3-3.5c8,0.8,8.8-0.5,12.5-4.5c2.3-3.5,6.8-19.3,4.5-21.5
		c-17-6.3-17.5-20.5-17.5-20.5s1.3,0.3,3.8,1.5c1.7-7.1-3.7-11.5-10.9-13.9c0.3,1.4,1.5,4.8,4.6,6.4c4,2,3.7,4.3,3.7,4.3
		c-2.5,0-4-0.3-3.4,3.9c0.5,4.3-8,43-8,43l-12,9l7.5-1.5c0,0-0.3,6.8,3,13.5s10.2,18.5,14.5,21.8c3.9,2.9,11.3,8.9,0.9,26.1
		c7.7-6.7,15.5-13.9,18.7-19.1C226.8,238.9,205.1,224.9,200.3,219.7z"/>
	<path class="st10" d="M183.6,182.1l-0.5,7.2c0,0-4.7-1.7-12.3-1.3c-5.8,1.3-7.8,0.5-10-2.5s0.3-12.5,1.2-15c5.7-0.3,12-2.5,13-5.3
		c1-2.8,0.8-9-2-12.2c-1.7-4.3-4.3-6.8-9.7-8.8c1.3-2.7,9.3-3.2,13-3.3c9.2,0,14.3,2.3,20.5,6.2c-0.2-0.8-2.1-3.7-3.7-6.1
		c-8.7-3.3-20.5-3.4-25.1-1.5c3.3-1.5,2.5-4.3,1.5-6.5c-2,3.3-9.5,6.5-15.3,5.5c1.8,1.3,1.3,1.5,8.5,2c-2.3,4.8-8.5,2.8-8.5,2.8
		s-0.3,2.8-3.3,3.5c-0.3-12.5-11-21.5-17.5-24c-6.5-2.5-7.5,1-7.5,4.8c1.8,21.8,21.5,24.5,27.7,25.3c-0.8,1.8-3,2.5-10.5,4
		c4.5,3.8,2.3,2.8,9,4.8c-0.8,3-4.5,2.8-9,2.5c-10.8,25.3-8.5,67.8-7,84c-3.3-1.5-6.8-10.3-7.8-19c-13.2,21.8-14.5,33.5-4.2,46
		c6.8,8.3,23.3,18.1,33.6,23.7c0.3,0,0.5,0,0.8,0c-14-23.7-17.5-84.5-17.3-91.3c9,6.5,26.2-1.7,32.8-4.7c6.7-3,11.7-4.2,11.7-4.2
		l4.8-14.7L183.6,182.1z"/>
	<path class="st3" d="M122.3,134.8c0,0-7-11.1,0-20.4c-9.2-5-29.7-16.8-37.2-49.8c-1.5-7.5-1-27.2,16.5-35.5c-2.5,7-3,10.5-2,14.5
		c7.3-13.5,11.9-16.5,22.7-17.3c-3.2,3-17,27.3-2.7,44.5c2.8-2,11.2-6.8,13.5-12.2c1,2,5.8,14.7-4.3,24.2c-3.5,4-6.5,10.3-1.5,14
		c5,3.8,9.7,4,12.2,4.5c0-4.3-0.5-17.6,11.8-20.8c-1.5,4.6-1.5,17.1,2.8,21.6c4.8-4.5,6.8-6,10-3.5c-2.8,6-5.8,21,4.3,31
		c-3.5,5.5-15,6.2-15,6.2l-14.5-16l-9.6-2.5C129.2,117.4,121.5,123.6,122.3,134.8z"/>
	<path class="st3" d="M179.8,134.8c0,0,12.3-25.4,5.5-38.9c5,2.5,11,5.8,15.5,17.3c3.8-1.3,7.3-5.3,8-8.5s5.3-31.8,1.8-59
		c4.3,3.5,13.5,10,15.5,40.2c1.8,9.5,4.8,14,4.8,14s12.8-25,9.5-51.7c4.3,4.8,15,28.7,13,43.7c8.8-14.3,10.5-19.8,10.5-19.8
		s9.8,20.5-3.8,35.8c-13.5,15.3-29.3,17-29.3,17s4.3,26.5-22.8,36.8c-4.3-1.8-2.5-8.8-2.5-8.8l-4.3-9l-11.8-8L179.8,134.8z"/>
	<path class="st6" d="M161.1,131.2c0,0-5.5-10.3-7-18c-2.8,3.3-3,4.5-8.8,0c6-2.5,4.8-4.8,4.8-4.8s-3.3-5.5-4.8-12
		c0.8,6.8,1.3,13.3-5.5,11.8s-16-5.5-21.7-11.8c0.8,3.8,0,3,0,3s-7.7-7.2-5.5-10.3c3.3-4.6,16-11.5,14.3-16.8
		c-1.8,1.8-15.2,7.2-15.1,13.5c-1.9-6.5,1.1-10.5,1.1-10.5s-11.8-12.5-5.3-30c-4.5,5.5-7.9,8.8-2,32c-4.3-2.3-9.3-9-11-22.7
		c0,16,2.3,34.7,16.3,43.7s39.5,23,41.2,34.3C157.8,134.4,159.3,134.2,161.1,131.2z"/>
	<path class="st6" d="M187.3,133.8c0,0,5.8-16.1,4.5-24.6c2.5,4.5,4,12.3,2.8,17.5c11-8,22.5-14.8,22.3-17.5c-4,0.8-4,0.8-4,0.8
		s7.9-26.3,6.3-36c3,23.8,1.8,29,6,31.5c-2.8,0-4-0.3-4-0.3s5.8,10,9.8,4.8s15-27.5,14.3-34.3c1.3,6.3,3.8,21.8-4.8,32.5
		c5.8-1,17.5-7.5,20.3-15.8c-2,7.8-9.8,23-24.3,25.5s-28.3,1.3-32.5,6c4.8,0.5,4.8,0.5,4.8,0.5s-11,8-12.3,10.4
		C191.3,133.9,189.6,132.9,187.3,133.8z"/>
	<g id="Layer_7">
		<path class="st9" d="M201.8,139.7c0,0,8.3-12.5,22.2-11.7c0.7,3.3-0.7,21-14.8,26C208.3,148,208.3,146.3,201.8,139.7z"/>
	</g>
	<g id="Layer_8">
	</g>
	<path class="st10" d="M204.3,141.3c-0.1,0.3-0.2,0.5-0.2,0.8c4.2,4.8,4.3,6.7,5.1,11.9c12.5-4.4,15-18.8,15-24.3
		C209.7,130.1,204.3,141.3,204.3,141.3z"/>
	<g id="Layer_9">
		<path class="st6" d="M196.2,153.3c0,0-0.2,8.8-2,12c-1.8,3.2-5.5,7.8-7.7,10.7s-5.7,8.8,0.8,17.5c5.7,0,6.8,0.2,12.7,1.3
			c5.8,1.2,11,1.8,13.7-2.6c2.7-4.3,4.5-16.4,4.5-16.4s-2-0.7-7.8-5.2C204.5,166.2,197.7,159.3,196.2,153.3z"/>
	</g>
	<g id="Layer_14">
		<path class="st11" d="M183.7,185.6c0,0,1.9,5.7,7.1,4.8s10.5-2.6,10.5-2.6l11.5,0.9l1.3,2.9l-5.1,4.8l-17.5-0.8
			C191.5,195.7,185.2,197.7,183.7,185.6z"/>
	</g>
	<g id="Layer_10">
		<path class="st3" d="M200.1,157.7c0,0,4.7,10.4,11.5,13.8c-5.8,0.3-9.8,0.8-10.8,2.2c3.4,2.6,9.8,8.1,6.8,11.4
			c-3.2-1.5-5.4-1.2-7,0c-1.6,1.2-3.5,3-5.2,2.8c-1.7-0.2-2.7-0.6-2.7-0.6s1.2,2.7,4.8,1.8c3.6-0.8,5.7-0.8,9.1,0.2
			c3.4,0.9,6.6,0.8,6.6,0.8l3.1,0l4.3-8.6l1.3-8l-5.4-4.3l-10.4-8.1l-0.3-2.3l1.6-3L200.1,157.7z"/>
	</g>
	<g id="Layer_11">
		<path class="st3" d="M213.7,188.2c0,0-1.9,8.1-7.9,6.8s-16.3-3.3-22.5-2.2c-6.2,1.1-16.2,3.7-19.3,4.6c-3.2,0.8-10,1-10-7
			s0-14,0-14s-8.3,8.7-7.8,16.7s5.2,13.2,13.5,10.5c8.3-2.7,21-6.8,26.5-6.3c-4,2.2-10.8,7-12.7,13c7-4.5,13.2-7.5,16.5-8
			c-0.8,4.2-4,28.5,19.7,34.5c-7.3-7.5-14-16.2-10.8-21.3c3.2-5.2-1.5-7.3-1.5-7.3l0.5-7.2l8.4,0.3
			C206.2,201.1,220.7,191,213.7,188.2z"/>
	</g>
	<g id="Layer_12">
		<path class="st6" d="M215.8,182.2c0,0-4.5,1.5-1.2,3.8C215.7,185,216.9,181.7,215.8,182.2z"/>
	</g>
	<g id="Layer_13">
		<path class="st3" d="M132.7,134.8l-3.8-8.6c0,0,5.5,0,9.8,3c4.3,3,8.3,6.8,7.7,12.8c-4.5-7.2-5.8-10.3-13-11.2
			C133,133.2,132.7,134.8,132.7,134.8z"/>
		<path class="st3" d="M207.2,140.7c0,0,1-9,13.8-8.5c-1.7,3.2-4.8,5.5-4.8,5.5v-1.3C216.2,136.4,211.3,134.7,207.2,140.7z"/>
	</g>
	<g id="Layer_15">
		<path class="st3" d="M178.8,161.8c0,0,4-2.5,0.8-6.8c-0.5,1.3-1.8,4.4-4.3,1.1s-4.8-9.5-10-8.9c-5.3,0.6-6.9,5.7-7,6.9
			c1.4-1.5,1.7-2,3.6-2.5c-1.4,1.3-2.6,3.6-1.4,5.4c1.3-1.8,2.2-2,2.2-2s-1.6,4.8,0.4,6.8c-1.6-0.1-2.6-1.1-2.6-1.1s1.2,5.2,4.8,6.3
			c3.7,1.1,8.1,1,10.8-3.9c1.2,1.3,3.7,5.3,3.7,5.3S180.9,163.7,178.8,161.8z"/>
	</g>
	<g id="Layer_16">
		<path class="st6" d="M167.6,154.3l5.8,6.1c0,0-0.8,1.8-3.8,1.3S164.8,157.6,167.6,154.3z"/>
	</g>
	<g id="Layer_18">
		<g>
			<path class="st11" d="M103,76.2c1.2,2.8,6.2,3.5,6.2,3.5s-3.5-11.5-5.2-18.8c-0.9-4,0.9-9.9,2.7-14.4c-4,5-6.7,9.2-1.1,30.9
				c-1-0.5-2-1.3-3-2.3C102.8,75.6,102.9,75.9,103,76.2z"/>
			<path class="st11" d="M130.5,108.9c-7.7-3.4-13.8-8.6-24.3-18.9c-6.4-6.3-9-18.7-10-27.3c-0.7-2.4-1.2-5-1.6-8
				c0,16,2.3,34.7,16.3,43.7s39.5,23,41.2,34.3c2.1,0.6,3.6,1,4.8,1.1c0.1-0.1,0.1-0.2,0.2-0.2C154.7,124.8,138.2,112.3,130.5,108.9
				z"/>
			<path class="st11" d="M147.5,108.5c-1-1.3-1.4-5.8-1.5-9.8c-0.2-0.8-0.4-1.5-0.6-2.3c0.8,6.8,1.3,13.3-5.5,11.8
				c-1.5-0.3-3.1-0.8-4.8-1.4C140.9,109.3,145.8,109.1,147.5,108.5z"/>
			<path class="st11" d="M111.7,85.9c-0.1-0.4-0.2-0.8-0.3-1.1c-0.1,1.6,0.1,3.3,0.6,4.9c1.2-6.7,10.7-12.7,12.7-15.2
				c0.3-0.4,0.6-0.8,0.9-1.2C121.8,75.6,111.6,80.4,111.7,85.9z"/>
		</g>
	</g>
	<g id="Layer_17">
		<g>
			<path class="st11" d="M230.5,110.4c4.4-0.5,5.9-4.2,9.2-10.9c2.2-4.4,3.5-11.3,4.2-17c-2.9,9.4-10,23.4-13.1,27.4
				C230.7,110.1,230.6,110.2,230.5,110.4z"/>
			<path class="st11" d="M215.5,109.4c3.8-6.6,3.9-22.1,3.7-30.3c-0.7,11.6-6.4,30.8-6.4,30.8S212.8,109.9,215.5,109.4z"/>
			<path class="st11" d="M260.6,92.4c-0.3,1-0.8,1.9-1.4,2.9c-7.4,13.7-27.2,21-39.4,24.5c5-0.4,10.7-0.8,16.5-1.8
				C250.8,115.4,258.6,100.2,260.6,92.4z"/>
			<path class="st11" d="M208.6,124.4c0,0,0,0-2.8-0.3c-0.7,0.4-1.1,0.7-1.1,0.7l-9.6,9.7c0.4,0.1,0.8,0.2,1.3,0.2
				C197.6,132.4,208.6,124.4,208.6,124.4z"/>
			<path class="st11" d="M191.4,133.7c1.7-7.9,1.3-15.7,0.6-21.2c-0.2,8.8-4.7,21.2-4.7,21.2C188.6,133.2,189.7,133.4,191.4,133.7z"
				/>
		</g>
	</g>
</g>
<g id="Layer_19">
	<g>
		<path class="st12" d="M83.5,276l-8,1l-3-20.9l-17.9,23.5l-8,1L43.4,259l-0.5-1.4l-4.8-5.3l12.3-1.5l3,20.9l17.9-23.5l8-1l3,20.8
			l17.8-23.4l8-1L83.5,276z"/>
		<path class="st12" d="M121.7,241.8l-10.3,30.7l-7.2,0.9l10.3-30.7L121.7,241.8z"/>
		<path class="st12" d="M149.2,260.4l-2.6,7.7l-29,3.6l2.6-7.7l7.7-23l7.2-0.9l-7.7,23L149.2,260.4z"/>
		<path class="st12" d="M190,236.9l-1.3,3.8l-2.5,7.7l-3.9,11.5l-4.9,4.3l-25.3,3.2l5.2-15.4l5.1-15.3l25.3-3.2L190,236.9z
			 M167,243.5l-2.5,7.7l-2.6,7.7l14.5-1.8l2.6-7.7l2.5-7.7L167,243.5z"/>
	</g>
	<g>
		<path class="st12" d="M139.4,291.7l-2.5,7.7l-3.9,11.5l-29,3.6l5.2-15.4l2.5-7.7l-3.6,0.5l-1.1-7.2l36.3-4.5L139.4,291.7z
			 M115.2,302.1l-1.3,3.8l14.5-1.8l1.3-3.8L115.2,302.1z M119,290.5l-1.3,3.8l14.5-1.8l1.3-3.8L119,290.5z"/>
		<path class="st12" d="M174.7,287.2l-2.5,7.7l-3.9,11.5l-7.2,0.9l3.9-11.5l-14.5,1.8l-3.9,11.5l-7.2,0.9l5.2-15.4l2.5-7.7l2.6-7.7
			l29-3.6L174.7,287.2z M154.3,286.1L153,290l14.5-1.8l1.3-3.8L154.3,286.1z"/>
		<path class="st12" d="M211.4,279l-10.9,1.4l-7.7,23l-7.2,0.9l7.7-23l-10.9,1.4l2.6-7.7l29-3.6L211.4,279z"/>
		<path class="st12" d="M246.7,274.5l-10.9,1.4l-7.7,23l-7.2,0.9l7.7-23l-10.9,1.4l2.6-7.7l29-3.6L246.7,274.5z"/>
		<path class="st12" d="M276.8,285.5l-2.6,7.7l-29,3.6l2.6-7.7l7.7-23l7.2-0.9l-7.7,23L276.8,285.5z"/>
		<path class="st12" d="M318.8,258.2l-2.6,7.7l-21.7,2.7l-1.3,3.8l21.7-2.7l-2.5,7.7l-21.7,2.7l-1.3,3.8l21.7-2.7l-2.6,7.7l-29,3.6
			l3.9-11.5l2.5-7.7l3.9-11.5L318.8,258.2z"/>
	</g>
	<g>
		<path class="st13" d="M82.5,275l-8,1l-3-20.9l-17.9,23.5l-8,1L42.4,258l-0.5-1.4l-4.8-5.3l12.3-1.5l3,20.9l17.9-23.5l8-1l3,20.8
			l17.8-23.4l8-1L82.5,275z"/>
		<path class="st13" d="M120.7,240.8l-10.3,30.7l-7.2,0.9l10.3-30.7L120.7,240.8z"/>
		<path class="st13" d="M148.2,259.4l-2.6,7.7l-29,3.6l2.6-7.7l7.7-23l7.2-0.9l-7.7,23L148.2,259.4z"/>
		<path class="st13" d="M189,235.9l-1.3,3.8l-2.5,7.7l-3.9,11.5l-4.9,4.3l-25.3,3.2l5.2-15.4l5.1-15.3l25.3-3.2L189,235.9z
			 M166,242.5l-2.5,7.7l-2.6,7.7l14.5-1.8l2.6-7.7l2.5-7.7L166,242.5z"/>
	</g>
	<g>
		<path class="st13" d="M138.4,290.7l-2.5,7.7l-3.9,11.5l-29,3.6l5.2-15.4l2.5-7.7l-3.6,0.5l-1.1-7.2l36.3-4.5L138.4,290.7z
			 M114.2,301.1l-1.3,3.8l14.5-1.8l1.3-3.8L114.2,301.1z M118,289.5l-1.3,3.8l14.5-1.8l1.3-3.8L118,289.5z"/>
		<path class="st13" d="M173.7,286.2l-2.5,7.7l-3.9,11.5l-7.2,0.9l3.9-11.5l-14.5,1.8l-3.9,11.5l-7.2,0.9l5.2-15.4l2.5-7.7l2.6-7.7
			l29-3.6L173.7,286.2z M153.3,285.1L152,289l14.5-1.8l1.3-3.8L153.3,285.1z"/>
		<path class="st13" d="M210.4,278l-10.9,1.4l-7.7,23l-7.2,0.9l7.7-23l-10.9,1.4l2.6-7.7l29-3.6L210.4,278z"/>
		<path class="st13" d="M245.7,273.5l-10.9,1.4l-7.7,23l-7.2,0.9l7.7-23l-10.9,1.4l2.6-7.7l29-3.6L245.7,273.5z"/>
		<path class="st13" d="M275.8,284.5l-2.6,7.7l-29,3.6l2.6-7.7l7.7-23l7.2-0.9l-7.7,23L275.8,284.5z"/>
		<path class="st13" d="M317.8,257.2l-2.6,7.7l-21.7,2.7l-1.3,3.8l21.7-2.7l-2.5,7.7l-21.7,2.7l-1.3,3.8l21.7-2.7l-2.6,7.7l-29,3.6
			l3.9-11.5l2.5-7.7l3.9-11.5L317.8,257.2z"/>
	</g>
	<g>
		<path class="st12" d="M80.3,270.6l-8,1l-3-20.9l-17.9,23.5l-8,1l-3.1-21.7l-3.6,0.5l-4.6-6.8l15.3-1.9l3,20.9l17.9-23.5l8-1
			l3,20.8L97,239.1l8-1L80.3,270.6z"/>
		<path class="st12" d="M118.5,236.4l-10.3,30.7L101,268l10.3-30.7L118.5,236.4z"/>
		<path class="st12" d="M146,255l-2.6,7.7l-29,3.6l2.6-7.7l7.7-23l7.2-0.9l-7.7,23L146,255z"/>
		<path class="st12" d="M186.8,231.5l-1.3,3.8L183,243l-3.9,11.5l-4.9,4.3l-25.3,3.2l5.2-15.4l5.1-15.3l25.3-3.2L186.8,231.5z
			 M163.8,238l-2.5,7.7l-2.6,7.7l14.5-1.8l2.6-7.7l2.5-7.7L163.8,238z"/>
	</g>
	<g>
		<path class="st12" d="M136.2,286.2l-2.5,7.7l-3.9,11.5l-29,3.6l5.2-15.4l2.5-7.7l-3.6,0.5l-4.6-6.8l39.8-5L136.2,286.2z
			 M112,296.6l-1.3,3.8l14.5-1.8l1.3-3.8L112,296.6z M115.8,285.1l-1.3,3.8l14.5-1.8l1.3-3.8L115.8,285.1z"/>
		<path class="st12" d="M171.5,281.8l-2.5,7.7l-3.9,11.5l-7.2,0.9l3.9-11.5l-14.5,1.8l-3.9,11.5l-7.2,0.9l5.2-15.4l2.5-7.7l2.6-7.7
			l29-3.6L171.5,281.8z M151.1,280.7l-1.3,3.8l14.5-1.8l1.3-3.8L151.1,280.7z"/>
		<path class="st12" d="M208.2,273.5l-10.9,1.4l-7.7,23l-7.2,0.9l7.7-23l-10.9,1.4l2.6-7.7l29-3.6L208.2,273.5z"/>
		<path class="st12" d="M243.5,269.1l-10.9,1.4l-7.7,23l-7.2,0.9l7.7-23l-10.9,1.4l2.6-7.7l29-3.6L243.5,269.1z"/>
		<path class="st12" d="M273.6,280l-2.6,7.7l-29,3.6l2.6-7.7l7.7-23l7.2-0.9l-7.7,23L273.6,280z"/>
		<path class="st12" d="M315.6,252.7l-2.6,7.7l-21.7,2.7L290,267l21.7-2.7l-2.5,7.7l-21.7,2.7l-1.3,3.8l21.7-2.7l-2.6,7.7l-29,3.6
			l3.9-11.5l2.5-7.7l3.9-11.5L315.6,252.7z"/>
	</g>
	<g>
		<path class="st3" d="M80.3,270.6l-8,1l-3-20.9l-17.9,23.5l-8,1l-3.1-21.7l-3.6,0.5l-4.6-6.8l15.3-1.9l3,20.9l17.9-23.5l8-1l3,20.8
			L97,239.1l8-1L80.3,270.6z"/>
		<path class="st3" d="M118.5,236.4l-10.3,30.7L101,268l10.3-30.7L118.5,236.4z"/>
		<path class="st3" d="M146,255l-2.6,7.7l-29,3.6l2.6-7.7l7.7-23l7.2-0.9l-7.7,23L146,255z"/>
		<path class="st3" d="M186.8,231.5l-1.3,3.8L183,243l-3.9,11.5l-4.9,4.3l-25.3,3.2l5.2-15.4l5.1-15.3l25.3-3.2L186.8,231.5z
			 M163.8,238l-2.5,7.7l-2.6,7.7l14.5-1.8l2.6-7.7l2.5-7.7L163.8,238z"/>
	</g>
	<g>
		<path class="st3" d="M136.2,286.2l-2.5,7.7l-3.9,11.5l-29,3.6l5.2-15.4l2.5-7.7l-3.6,0.5l-4.6-6.8l39.8-5L136.2,286.2z M112,296.6
			l-1.3,3.8l14.5-1.8l1.3-3.8L112,296.6z M115.8,285.1l-1.3,3.8l14.5-1.8l1.3-3.8L115.8,285.1z"/>
		<path class="st3" d="M171.5,281.8l-2.5,7.7l-3.9,11.5l-7.2,0.9l3.9-11.5l-14.5,1.8l-3.9,11.5l-7.2,0.9l5.2-15.4l2.5-7.7l2.6-7.7
			l29-3.6L171.5,281.8z M151.1,280.7l-1.3,3.8l14.5-1.8l1.3-3.8L151.1,280.7z"/>
		<path class="st3" d="M208.2,273.5l-10.9,1.4l-7.7,23l-7.2,0.9l7.7-23l-10.9,1.4l2.6-7.7l29-3.6L208.2,273.5z"/>
		<path class="st3" d="M243.5,269.1l-10.9,1.4l-7.7,23l-7.2,0.9l7.7-23l-10.9,1.4l2.6-7.7l29-3.6L243.5,269.1z"/>
		<path class="st3" d="M273.6,280l-2.6,7.7l-29,3.6l2.6-7.7l7.7-23l7.2-0.9l-7.7,23L273.6,280z"/>
		<path class="st3" d="M315.6,252.7l-2.6,7.7l-21.7,2.7L290,267l21.7-2.7l-2.5,7.7l-21.7,2.7l-1.3,3.8l21.7-2.7l-2.6,7.7l-29,3.6
			l3.9-11.5l2.5-7.7l3.9-11.5L315.6,252.7z"/>
	</g>
</g>
<g id="Layer_23" class="st0">
	
		<radialGradient id="SVGID_1_" cx="243.9147" cy="196.4167" r="230.5063" gradientTransform="matrix(1 0 0 0.7 0 58.925)" gradientUnits="userSpaceOnUse">
		<stop  offset="0" style="stop-color:#FFFFFF;stop-opacity:0.95"/>
		<stop  offset="0.2023" style="stop-color:#FFFFFF;stop-opacity:0.65"/>
		<stop  offset="0.4256" style="stop-color:#FFFFFF;stop-opacity:0"/>
	</radialGradient>
	<circle class="st14" cx="243.9" cy="196.4" r="230.5"/>
</g>
</svg>
